<?xml version="1.0" encoding="UTF-8"?>
<svg xmlns="http://www.w3.org/2000/svg" xmlns:xlink="http://www.w3.org/1999/xlink" width="4000" height="4000" viewBox="0 0 4000 4000">
<defs>
<clipPath id="clip-0">

</clipPath>
<clipPath id="clip-1">
<path clip-rule="evenodd" d="M 2991.5 3119.878906 C 3069.128906 2985.441406 3241.25 2939.308594 3375.691406 3016.941406 C 3510.128906 3094.558594 3556.25 3266.691406 3478.628906 3401.128906 C 3401.058594 3535.558594 3228.878906 3581.691406 3094.441406 3504.058594 C 2960 3426.441406 2913.878906 3254.308594 2991.5 3119.878906 "/>
</clipPath>
<linearGradient id="linear-pattern-0" gradientUnits="userSpaceOnUse" x1="-0.280024" y1="0" x2="1.280016" y2="0" gradientTransform="matrix(281.245, -487.128, -487.128, -281.245, 3094.44, 3504.06)">
<stop offset="0" stop-color="rgb(33.332825%, 60.391235%, 100%)" stop-opacity="1"/>
<stop offset="0.125" stop-color="rgb(33.332825%, 60.391235%, 100%)" stop-opacity="1"/>
<stop offset="0.1875" stop-color="rgb(33.236694%, 60.270691%, 99.960327%)" stop-opacity="1"/>
<stop offset="0.195312" stop-color="rgb(33.049011%, 60.03418%, 99.882507%)" stop-opacity="1"/>
<stop offset="0.203125" stop-color="rgb(32.861328%, 59.799194%, 99.806213%)" stop-opacity="1"/>
<stop offset="0.210938" stop-color="rgb(32.675171%, 59.565735%, 99.729919%)" stop-opacity="1"/>
<stop offset="0.21875" stop-color="rgb(32.489014%, 59.33075%, 99.653625%)" stop-opacity="1"/>
<stop offset="0.226562" stop-color="rgb(32.302856%, 59.09729%, 99.577332%)" stop-opacity="1"/>
<stop offset="0.234375" stop-color="rgb(32.116699%, 58.863831%, 99.499512%)" stop-opacity="1"/>
<stop offset="0.242188" stop-color="rgb(31.930542%, 58.628845%, 99.423218%)" stop-opacity="1"/>
<stop offset="0.25" stop-color="rgb(31.742859%, 58.395386%, 99.346924%)" stop-opacity="1"/>
<stop offset="0.257812" stop-color="rgb(31.556702%, 58.1604%, 99.27063%)" stop-opacity="1"/>
<stop offset="0.265625" stop-color="rgb(31.370544%, 57.926941%, 99.194336%)" stop-opacity="1"/>
<stop offset="0.273438" stop-color="rgb(31.184387%, 57.691956%, 99.118042%)" stop-opacity="1"/>
<stop offset="0.28125" stop-color="rgb(30.99823%, 57.458496%, 99.041748%)" stop-opacity="1"/>
<stop offset="0.289062" stop-color="rgb(30.812073%, 57.223511%, 98.965454%)" stop-opacity="1"/>
<stop offset="0.296875" stop-color="rgb(30.62439%, 56.990051%, 98.88916%)" stop-opacity="1"/>
<stop offset="0.304688" stop-color="rgb(30.438232%, 56.755066%, 98.81134%)" stop-opacity="1"/>
<stop offset="0.3125" stop-color="rgb(30.252075%, 56.521606%, 98.735046%)" stop-opacity="1"/>
<stop offset="0.320312" stop-color="rgb(30.065918%, 56.286621%, 98.658752%)" stop-opacity="1"/>
<stop offset="0.328125" stop-color="rgb(29.879761%, 56.053162%, 98.582458%)" stop-opacity="1"/>
<stop offset="0.335938" stop-color="rgb(29.693604%, 55.818176%, 98.506165%)" stop-opacity="1"/>
<stop offset="0.34375" stop-color="rgb(29.50592%, 55.584717%, 98.429871%)" stop-opacity="1"/>
<stop offset="0.351562" stop-color="rgb(29.319763%, 55.349731%, 98.353577%)" stop-opacity="1"/>
<stop offset="0.359375" stop-color="rgb(29.133606%, 55.116272%, 98.277283%)" stop-opacity="1"/>
<stop offset="0.367188" stop-color="rgb(28.947449%, 54.881287%, 98.199463%)" stop-opacity="1"/>
<stop offset="0.375" stop-color="rgb(28.761292%, 54.647827%, 98.123169%)" stop-opacity="1"/>
<stop offset="0.382812" stop-color="rgb(28.575134%, 54.412842%, 98.046875%)" stop-opacity="1"/>
<stop offset="0.390625" stop-color="rgb(28.388977%, 54.179382%, 97.970581%)" stop-opacity="1"/>
<stop offset="0.398438" stop-color="rgb(28.201294%, 53.944397%, 97.894287%)" stop-opacity="1"/>
<stop offset="0.40625" stop-color="rgb(28.015137%, 53.710938%, 97.817993%)" stop-opacity="1"/>
<stop offset="0.414062" stop-color="rgb(27.828979%, 53.475952%, 97.741699%)" stop-opacity="1"/>
<stop offset="0.421875" stop-color="rgb(27.642822%, 53.242493%, 97.665405%)" stop-opacity="1"/>
<stop offset="0.429688" stop-color="rgb(27.456665%, 53.007507%, 97.589111%)" stop-opacity="1"/>
<stop offset="0.4375" stop-color="rgb(27.270508%, 52.774048%, 97.511292%)" stop-opacity="1"/>
<stop offset="0.445312" stop-color="rgb(27.082825%, 52.539062%, 97.434998%)" stop-opacity="1"/>
<stop offset="0.453125" stop-color="rgb(26.896667%, 52.305603%, 97.358704%)" stop-opacity="1"/>
<stop offset="0.460938" stop-color="rgb(26.71051%, 52.070618%, 97.28241%)" stop-opacity="1"/>
<stop offset="0.46875" stop-color="rgb(26.524353%, 51.837158%, 97.206116%)" stop-opacity="1"/>
<stop offset="0.476562" stop-color="rgb(26.338196%, 51.603699%, 97.129822%)" stop-opacity="1"/>
<stop offset="0.484375" stop-color="rgb(26.152039%, 51.368713%, 97.053528%)" stop-opacity="1"/>
<stop offset="0.492188" stop-color="rgb(25.964355%, 51.135254%, 96.977234%)" stop-opacity="1"/>
<stop offset="0.5" stop-color="rgb(25.778198%, 50.900269%, 96.899414%)" stop-opacity="1"/>
<stop offset="0.507812" stop-color="rgb(25.592041%, 50.666809%, 96.82312%)" stop-opacity="1"/>
<stop offset="0.515625" stop-color="rgb(25.405884%, 50.431824%, 96.746826%)" stop-opacity="1"/>
<stop offset="0.523438" stop-color="rgb(25.219727%, 50.198364%, 96.670532%)" stop-opacity="1"/>
<stop offset="0.53125" stop-color="rgb(25.033569%, 49.963379%, 96.594238%)" stop-opacity="1"/>
<stop offset="0.539062" stop-color="rgb(24.845886%, 49.729919%, 96.517944%)" stop-opacity="1"/>
<stop offset="0.546875" stop-color="rgb(24.659729%, 49.494934%, 96.44165%)" stop-opacity="1"/>
<stop offset="0.554688" stop-color="rgb(24.473572%, 49.261475%, 96.365356%)" stop-opacity="1"/>
<stop offset="0.5625" stop-color="rgb(24.287415%, 49.026489%, 96.289062%)" stop-opacity="1"/>
<stop offset="0.570312" stop-color="rgb(24.101257%, 48.79303%, 96.211243%)" stop-opacity="1"/>
<stop offset="0.578125" stop-color="rgb(23.9151%, 48.558044%, 96.134949%)" stop-opacity="1"/>
<stop offset="0.585938" stop-color="rgb(23.728943%, 48.324585%, 96.058655%)" stop-opacity="1"/>
<stop offset="0.59375" stop-color="rgb(23.54126%, 48.0896%, 95.982361%)" stop-opacity="1"/>
<stop offset="0.601562" stop-color="rgb(23.355103%, 47.85614%, 95.906067%)" stop-opacity="1"/>
<stop offset="0.609375" stop-color="rgb(23.168945%, 47.621155%, 95.829773%)" stop-opacity="1"/>
<stop offset="0.617188" stop-color="rgb(22.982788%, 47.387695%, 95.753479%)" stop-opacity="1"/>
<stop offset="0.625" stop-color="rgb(22.796631%, 47.15271%, 95.677185%)" stop-opacity="1"/>
<stop offset="0.632812" stop-color="rgb(22.610474%, 46.91925%, 95.599365%)" stop-opacity="1"/>
<stop offset="0.640625" stop-color="rgb(22.422791%, 46.684265%, 95.523071%)" stop-opacity="1"/>
<stop offset="0.648438" stop-color="rgb(22.236633%, 46.450806%, 95.446777%)" stop-opacity="1"/>
<stop offset="0.65625" stop-color="rgb(22.050476%, 46.21582%, 95.370483%)" stop-opacity="1"/>
<stop offset="0.664062" stop-color="rgb(21.864319%, 45.982361%, 95.294189%)" stop-opacity="1"/>
<stop offset="0.671875" stop-color="rgb(21.678162%, 45.747375%, 95.217896%)" stop-opacity="1"/>
<stop offset="0.679688" stop-color="rgb(21.492004%, 45.513916%, 95.141602%)" stop-opacity="1"/>
<stop offset="0.6875" stop-color="rgb(21.304321%, 45.278931%, 95.065308%)" stop-opacity="1"/>
<stop offset="0.695312" stop-color="rgb(21.118164%, 45.045471%, 94.989014%)" stop-opacity="1"/>
<stop offset="0.703125" stop-color="rgb(20.932007%, 44.810486%, 94.911194%)" stop-opacity="1"/>
<stop offset="0.710938" stop-color="rgb(20.74585%, 44.577026%, 94.8349%)" stop-opacity="1"/>
<stop offset="0.71875" stop-color="rgb(20.559692%, 44.343567%, 94.758606%)" stop-opacity="1"/>
<stop offset="0.726562" stop-color="rgb(20.373535%, 44.108582%, 94.682312%)" stop-opacity="1"/>
<stop offset="0.734375" stop-color="rgb(20.185852%, 43.875122%, 94.606018%)" stop-opacity="1"/>
<stop offset="0.742188" stop-color="rgb(19.999695%, 43.640137%, 94.529724%)" stop-opacity="1"/>
<stop offset="0.75" stop-color="rgb(19.813538%, 43.406677%, 94.45343%)" stop-opacity="1"/>
<stop offset="0.757812" stop-color="rgb(19.62738%, 43.171692%, 94.377136%)" stop-opacity="1"/>
<stop offset="0.765625" stop-color="rgb(19.441223%, 42.938232%, 94.300842%)" stop-opacity="1"/>
<stop offset="0.773438" stop-color="rgb(19.255066%, 42.703247%, 94.223022%)" stop-opacity="1"/>
<stop offset="0.78125" stop-color="rgb(19.068909%, 42.469788%, 94.146729%)" stop-opacity="1"/>
<stop offset="0.789062" stop-color="rgb(18.881226%, 42.234802%, 94.070435%)" stop-opacity="1"/>
<stop offset="0.796875" stop-color="rgb(18.695068%, 42.001343%, 93.994141%)" stop-opacity="1"/>
<stop offset="0.804688" stop-color="rgb(18.508911%, 41.766357%, 93.917847%)" stop-opacity="1"/>
<stop offset="0.8125" stop-color="rgb(18.322754%, 41.532898%, 93.841553%)" stop-opacity="1"/>
<stop offset="0.875" stop-color="rgb(18.133545%, 41.294861%, 93.763733%)" stop-opacity="1"/>
<stop offset="1" stop-color="rgb(18.03894%, 41.175842%, 93.72406%)" stop-opacity="1"/>
</linearGradient>
<clipPath id="clip-2">
<path clip-rule="nonzero" d="M 2210 2236 L 3480 2236 L 3480 3665 L 2210 3665 Z M 2210 2236 "/>
</clipPath>
<clipPath id="clip-3">
<path clip-rule="evenodd" d="M 2960.558594 2236 L 2210.558594 3535 C 2210.558594 3535 2325.441406 3528.75 2441.25 3522.378906 C 2595 3514 2747.808594 3551.691406 2880.058594 3630.75 C 2886.058594 3634.308594 2892 3637.878906 2897.75 3641.308594 C 2951.128906 3673.25 3018.058594 3671.75 3070 3637.441406 L 3070.058594 3637.441406 C 3310.25 3478.808594 3461.75 3216.441406 3479 2929.128906 L 3479 2929.058594 C 3482.691406 2867 3450.5 2808.25 3396.191406 2777.941406 C 3390.308594 2774.691406 3384.308594 2771.378906 3378.191406 2767.941406 C 3243.628906 2692.941406 3134.558594 2579.5 3064.941406 2442.058594 C 3012.558594 2338.628906 2960.558594 2236 2960.558594 2236 "/>
</clipPath>
<linearGradient id="linear-pattern-1" gradientUnits="userSpaceOnUse" x1="0.152215" y1="0" x2="1.139277" y2="0" gradientTransform="matrix(1113.21, 1579.82, 1579.82, -1113.21, 2010.37, 2017.19)">
<stop offset="0%" stop-color="#1a2a35" stop-opacity="1"/> <!-- darker color -->
<stop offset="100%" stop-color="#22303b" stop-opacity="1"/> <!-- darker color -->
</linearGradient>
<clipPath id="clip-4">
<path clip-rule="nonzero" d="M 483 1163 L 2984 1163 L 2984 3644 L 483 3644 Z M 483 1163 "/>
</clipPath>
<clipPath id="clip-5">
<path clip-rule="evenodd" d="M 1954.25 1163.058594 C 2092.878906 1187.808594 2229.691406 1236.691406 2358.691406 1311.128906 C 2956.128906 1656.128906 3161.191406 2421.191406 2816.25 3018.691406 C 2471.25 3616.128906 1706.128906 3821.191406 1108.691406 3476.191406 C 511.25 3131.25 306.1875 2366.128906 651.125 1768.691406 C 760.8125 1578.75 912.9375 1428.5 1088.691406 1322.878906 L 1305.808594 1408.128906 L 1513.308594 1400.441406 L 1446 1588.25 L 1415.25 1684.878906 L 1488.191406 1818.941406 L 1713.058594 1804.441406 L 1721.441406 1664.941406 L 2008.808594 1542.191406 L 1738.191406 1385.941406 L 1764.558594 1256.808594 L 1954.25 1163.058594 "/>
</clipPath>
<linearGradient id="linear-pattern-2" gradientUnits="userSpaceOnUse" x1="-0.229457" y1="0" x2="1.600426" y2="0" gradientTransform="matrix(1680.8, 1296.26, 1296.26, -1680.8, 629.14, 1541.82)">
  <stop offset="0%" stop-color="#314753" stop-opacity="1"/> <!-- darker color -->
  <stop offset="100%" stop-color="#2a3d47" stop-opacity="1"/> <!-- darker color -->
</linearGradient>
<clipPath id="clip-6">
<path clip-rule="nonzero" d="M 530 1622 L 2984 1622 L 2984 3644 L 530 3644 Z M 530 1622 "/>
</clipPath>
<clipPath id="clip-7">
<path clip-rule="evenodd" d="M 2717.808594 1622.691406 C 3022.75 2012.378906 3078.691406 2564.058594 2816.25 3018.691406 C 2471.25 3616.128906 1706.128906 3821.191406 1108.691406 3476.191406 C 814.4375 3306.308594 615.375 3034.5 530.3125 2730.941406 C 759.25 3022.441406 1114.808594 3209.808594 1513.878906 3209.808594 C 2203.808594 3209.808594 2763.878906 2649.691406 2763.878906 1959.808594 C 2763.878906 1843 2747.878906 1729.941406 2717.808594 1622.691406 "/>
</clipPath>
<linearGradient id="linear-pattern-3" gradientUnits="userSpaceOnUse" x1="-0.00492673" y1="0" x2="1.114946" y2="0" gradientTransform="matrix(2314.61, -47.1312, -47.1312, -2314.61, 518.241, 2668.08)">
<stop offset="0%" stop-color="#233041" stop-opacity="1"/> <!-- slightly lighter dark -->
<stop offset="100%" stop-color="#2b3a46" stop-opacity="1"/> <!-- slightly lighter dark -->
</linearGradient>
<clipPath id="clip-8">
<path clip-rule="nonzero" d="M 1724 1654 L 2024 1654 L 2024 1853 L 1724 1853 Z M 1724 1654 "/>
</clipPath>
<clipPath id="clip-9">
<path clip-rule="evenodd" d="M 1751.621094 1716.558594 L 1897 1733.878906 L 1966 1838.378906 C 1975.5 1852.75 1994.871094 1856.75 2009.25 1847.25 C 2023.691406 1837.75 2027.628906 1818.308594 2018.128906 1803.941406 L 1941.128906 1687.308594 C 1936.058594 1679.628906 1927.878906 1674.558594 1918.75 1673.5 L 1759 1654.5 C 1741.878906 1652.5 1726.308594 1664.75 1724.25 1681.878906 C 1722.25 1699 1734.5 1714.558594 1751.621094 1716.558594 "/>
</clipPath>
<linearGradient id="linear-pattern-4" gradientUnits="userSpaceOnUse" x1="0.333055" y1="0" x2="0.709134" y2="0" gradientTransform="matrix(192.187, 710.712, 710.712, -192.187, 1773.93, 1384.51)">
<stop offset="0%" stop-color="#233041" stop-opacity="1"/> <!-- slightly lighter dark -->
<stop offset="100%" stop-color="#2b3a46" stop-opacity="1"/> <!-- slightly lighter dark -->
</linearGradient>
<clipPath id="clip-10">
<path clip-rule="nonzero" d="M 992 1591 L 1419 1591 L 1419 1780 L 992 1780 Z M 992 1591 "/>
</clipPath>
<clipPath id="clip-11">
<path clip-rule="evenodd" d="M 1376 1660.941406 L 1243 1713.441406 L 1039.558594 1596 C 1024.621094 1587.378906 1005.5 1592.5 996.875 1607.441406 C 988.25 1622.378906 993.375 1641.5 1008.308594 1650.128906 L 1224.808594 1775.128906 C 1233.058594 1779.878906 1243 1780.628906 1251.878906 1777.128906 L 1398.941406 1719.128906 C 1415 1712.75 1422.878906 1694.628906 1416.558594 1678.558594 C 1410.191406 1662.5 1392.058594 1654.628906 1376 1660.941406 "/>
</clipPath>
<linearGradient id="linear-pattern-5" gradientUnits="userSpaceOnUse" x1="-0.0125751" y1="0" x2="0.394908" y2="0" gradientTransform="matrix(192.188, 710.713, 710.713, -192.188, 1175.89, 1546.23)">
<stop offset="0%" stop-color="#233041" stop-opacity="1"/> <!-- slightly lighter dark -->
<stop offset="100%" stop-color="#2b3a46" stop-opacity="1"/> <!-- slightly lighter dark -->
</linearGradient>
<clipPath id="clip-12">
<path clip-rule="nonzero" d="M 1300 1806 L 1539 1806 L 1539 2121 L 1300 2121 Z M 1300 1806 "/>
</clipPath>
<clipPath id="clip-13">
<path clip-rule="evenodd" d="M 1476.5 1830.878906 L 1451.5 1941.75 L 1311.191406 2066.191406 C 1298.308594 2077.628906 1297.128906 2097.378906 1308.558594 2110.308594 C 1320 2123.191406 1339.75 2124.378906 1352.691406 2112.941406 L 1500.558594 1981.808594 C 1505.441406 1977.441406 1508.878906 1971.691406 1510.308594 1965.308594 L 1537.5 1844.628906 C 1541.25 1827.808594 1530.691406 1811.058594 1513.878906 1807.25 C 1497.058594 1803.441406 1480.308594 1814.058594 1476.5 1830.878906 "/>
</clipPath>
<linearGradient id="linear-pattern-6" gradientUnits="userSpaceOnUse" x1="0.380239" y1="0" x2="0.887599" y2="0" gradientTransform="matrix(192.187, 710.711, 710.711, -192.187, 1297.68, 1513.29)">
<stop offset="0%" stop-color="#233041" stop-opacity="1"/> <!-- slightly lighter dark -->
<stop offset="100%" stop-color="#2b3a46" stop-opacity="1"/> <!-- slightly lighter dark -->
</linearGradient>
<clipPath id="clip-14">
<path clip-rule="nonzero" d="M 1681 1773 L 2007 1773 L 2007 2132 L 1681 2132 Z M 1681 1773 "/>
</clipPath>
<clipPath id="clip-15">
<path clip-rule="evenodd" d="M 1682.878906 1812.5 L 1728.628906 1983.25 C 1730.75 1991.25 1736 1998.058594 1743.191406 2002.25 L 1959.691406 2127.25 C 1974.628906 2135.878906 1993.75 2130.75 2002.371094 2115.808594 C 2011 2100.878906 2005.878906 2081.75 1990.941406 2073.121094 L 1785.628906 1954.558594 L 1743.25 1796.308594 C 1738.75 1779.691406 1721.628906 1769.75 1704.941406 1774.25 C 1688.308594 1778.691406 1678.378906 1795.871094 1682.878906 1812.5 "/>
</clipPath>
<linearGradient id="linear-pattern-7" gradientUnits="userSpaceOnUse" x1="0.471236" y1="0" x2="1.069226" y2="0" gradientTransform="matrix(192.187, 710.711, 710.711, -192.187, 1696.12, 1405.55)">
<stop offset="0%" stop-color="#233041" stop-opacity="1"/> <!-- slightly lighter dark -->
<stop offset="100%" stop-color="#2b3a46" stop-opacity="1"/> <!-- slightly lighter dark -->
</linearGradient>
<clipPath id="clip-16">
<path clip-rule="nonzero" d="M 1996 1529 L 2428 1529 L 2428 1722 L 1996 1722 Z M 1996 1529 "/>
</clipPath>
<clipPath id="clip-17">
<path clip-rule="evenodd" d="M 2004.058594 1581.5 L 2116.378906 1710.558594 C 2124.191406 1719.558594 2136.5 1723.308594 2148 1720.25 L 2404.128906 1651.558594 C 2420.808594 1647.128906 2430.691406 1630 2426.25 1613.308594 C 2421.808594 1596.691406 2404.628906 1586.75 2388 1591.25 L 2150.691406 1654.808594 L 2051.191406 1540.441406 C 2039.878906 1527.441406 2020.121094 1526.058594 2007.121094 1537.378906 C 1994.128906 1548.75 1992.75 1568.5 2004.058594 1581.5 "/>
</clipPath>
<linearGradient id="linear-pattern-8" gradientUnits="userSpaceOnUse" x1="0.263181" y1="0" x2="0.677081" y2="0" gradientTransform="matrix(192.188, 710.715, 710.715, -192.188, 2129.93, 1288.24)">
<stop offset="0%" stop-color="#233041" stop-opacity="1"/> <!-- slightly lighter dark -->
<stop offset="100%" stop-color="#2b3a46" stop-opacity="1"/> <!-- slightly lighter dark -->
</linearGradient>
<clipPath id="clip-18">
<path clip-rule="nonzero" d="M 668 576 L 1236 576 L 1236 1144 L 668 1144 Z M 668 576 "/>
</clipPath>
<clipPath id="clip-19">
<path clip-rule="evenodd" d="M 687.0625 683.191406 L 1129 1125.128906 C 1153.378906 1149.5 1193 1149.5 1217.378906 1125.128906 C 1241.808594 1100.75 1241.808594 1061.128906 1217.378906 1036.75 L 775.4375 594.808594 C 751.0625 570.441406 711.4375 570.441406 687.0625 594.808594 C 662.6875 619.191406 662.6875 658.808594 687.0625 683.191406 "/>
</clipPath>
<linearGradient id="linear-pattern-9" gradientUnits="userSpaceOnUse" x1="0.0816256" y1="0" x2="0.602461" y2="0" gradientTransform="matrix(1332.59, 678.131, 678.131, -1332.59, 496.44, 628.03)">
<stop offset="0" stop-color="#00aa72" stop-opacity="1"/>
  <stop offset="0.5" stop-color="#009966" stop-opacity="1"/>
  <stop offset="1" stop-color="#00885b" stop-opacity="1"/>
</linearGradient>
<clipPath id="clip-20">
<path clip-rule="nonzero" d="M 1319 524 L 1542 524 L 1542 1011 L 1319 1011 Z M 1319 524 "/>
</clipPath>
<clipPath id="clip-21">
<path clip-rule="evenodd" d="M 1321.941406 603 L 1418.628906 963.75 C 1427.558594 997.058594 1461.871094 1016.878906 1495.191406 1007.941406 C 1528.5 999.058594 1548.308594 964.75 1539.371094 931.441406 L 1442.691406 570.621094 C 1433.75 537.308594 1399.441406 517.5 1366.128906 526.441406 C 1332.808594 535.371094 1313 569.691406 1321.941406 603 "/>
</clipPath>
<linearGradient id="linear-pattern-10" gradientUnits="userSpaceOnUse" x1="0.453192" y1="0" x2="0.744926" y2="0" gradientTransform="matrix(1332.59, 678.132, 678.132, -1332.59, 632.355, 360.95)">
<stop offset="0" stop-color="#00aa72" stop-opacity="1"/>
  <stop offset="0.5" stop-color="#009966" stop-opacity="1"/>
  <stop offset="1" stop-color="#00885b" stop-opacity="1"/>
</linearGradient>
<clipPath id="clip-22">
<path clip-rule="nonzero" d="M 1747 243 L 2035 243 L 2035 973 L 1747 973 Z M 1747 243 "/>
</clipPath>
<clipPath id="clip-23">
<path clip-rule="evenodd" d="M 1911.878906 290.308594 L 1750.128906 894 C 1741.191406 927.308594 1761 961.621094 1794.308594 970.558594 C 1827.628906 979.5 1861.941406 959.691406 1870.878906 926.371094 L 2032.621094 322.621094 C 2041.558594 289.308594 2021.75 255.058594 1988.441406 246.121094 C 1955.128906 237.191406 1920.808594 257 1911.878906 290.308594 "/>
</clipPath>
<linearGradient id="linear-pattern-11" gradientUnits="userSpaceOnUse" x1="0.623396" y1="0" x2="1.027596" y2="0" gradientTransform="matrix(1332.59, 678.131, 678.131, -1332.59, 791.327, 48.55)">
<stop offset="0" stop-color="#00aa72" stop-opacity="1"/>
  <stop offset="0.5" stop-color="#009966" stop-opacity="1"/>
  <stop offset="1" stop-color="#00885b" stop-opacity="1"/>
</linearGradient>
</defs>

<g clip-path="url(#clip-0)">
<g clip-path="url(#clip-1)">
<path fill-rule="nonzero" fill="url(#linear-pattern-0)" d="M 3395.65625 3859.84375 L 2635.71875 3421.09375 L 3074.472656 2661.15625 L 3834.410156 3099.90625 Z M 3395.65625 3859.84375 "/>
</g>
</g>
<g clip-path="url(#clip-2)">
<g clip-path="url(#clip-3)">
<path fill-rule="nonzero" fill="url(#linear-pattern-1)" d="M 1533.824219 2712.855469 L 3060.617188 1637.011719 L 4159.425781 3196.394531 L 2632.632812 4272.238281 Z M 1533.824219 2712.855469 "/>
</g>
</g>
<g clip-path="url(#clip-4)">
<g clip-path="url(#clip-5)">
<path fill-rule="nonzero" fill="url(#linear-pattern-2)" d="M -979.253906 2829.835938 L 1370.964844 -217.589844 L 4446.632812 2154.414062 L 2096.410156 5201.839844 Z M -979.253906 2829.835938 "/>
</g>
</g>
<g clip-path="url(#clip-6)">
<g clip-path="url(#clip-7)">
<path fill-rule="nonzero" fill="url(#linear-pattern-3)" d="M 531.371094 3873.058594 L 485.566406 1623.601562 L 3077.632812 1570.820312 L 3123.4375 3820.277344 Z M 531.371094 3873.058594 "/>
</g>
</g>
<g clip-path="url(#clip-8)">
<g clip-path="url(#clip-9)">
<path fill-rule="nonzero" fill="url(#linear-pattern-4)" d="M 1670.78125 1666.417969 L 2006.820312 1575.546875 L 2079.097656 1842.832031 L 1743.058594 1933.703125 Z M 1670.78125 1666.417969 "/>
</g>
</g>
<g clip-path="url(#clip-10)">
<g clip-path="url(#clip-11)">
<path fill-rule="nonzero" fill="url(#linear-pattern-5)" d="M 939.554688 1600.546875 L 1393.261719 1477.859375 L 1471.578125 1767.460938 L 1017.867188 1890.152344 Z M 939.554688 1600.546875 "/>
</g>
</g>
<g clip-path="url(#clip-12)">
<g clip-path="url(#clip-13)">
<path fill-rule="nonzero" fill="url(#linear-pattern-6)" d="M 1216.257812 1825.308594 L 1524.617188 1741.925781 L 1622.125 2102.511719 L 1313.765625 2185.894531 Z M 1216.257812 1825.308594 "/>
</g>
</g>
<g clip-path="url(#clip-14)">
<g clip-path="url(#clip-15)">
<path fill-rule="nonzero" fill="url(#linear-pattern-7)" d="M 1586.121094 1794.699219 L 1988.335938 1685.933594 L 2103.261719 2110.929688 L 1701.046875 2219.695312 Z M 1586.121094 1794.699219 "/>
</g>
</g>
<g clip-path="url(#clip-16)">
<g clip-path="url(#clip-17)">
<path fill-rule="nonzero" fill="url(#linear-pattern-8)" d="M 1943.046875 1539.5 L 2400.847656 1415.703125 L 2480.394531 1709.867188 L 2022.59375 1833.664062 Z M 1943.046875 1539.5 "/>
</g>
</g>
<g clip-path="url(#clip-18)">
<g clip-path="url(#clip-19)">
<path fill-rule="nonzero" fill="url(#linear-pattern-9)" d="M 428.628906 1030.390625 L 781.808594 336.355469 L 1475.871094 689.550781 L 1122.6875 1383.585938 Z M 428.628906 1030.390625 "/>
</g>
</g>
<g clip-path="url(#clip-20)">
<g clip-path="url(#clip-21)">
<path fill-rule="nonzero" fill="url(#linear-pattern-10)" d="M 1111.144531 914.160156 L 1361.402344 422.386719 L 1750.164062 620.21875 L 1499.90625 1111.996094 Z M 1111.144531 914.160156 "/>
</g>
</g>
<g clip-path="url(#clip-22)">
<g clip-path="url(#clip-23)">
<path fill-rule="nonzero" fill="url(#linear-pattern-11)" d="M 1441.140625 826.8125 L 1802.972656 115.777344 L 2341.609375 389.878906 L 1979.777344 1100.910156 Z M 1441.140625 826.8125 "/>
</g>
</g>
</svg>
