<?xml version="1.0" encoding="UTF-8"?>
<svg xmlns="http://www.w3.org/2000/svg" xmlns:xlink="http://www.w3.org/1999/xlink" width="4000" height="4000" viewBox="0 0 4000 4000">
<defs>
<clipPath id="clip-0">

</clipPath>
<clipPath id="clip-1">
<path clip-rule="evenodd" d="M 3250 2226.058594 L 750 2226.058594 L 750 3383.058594 C 750 3438.25 786.1875 3486.941406 839.0625 3502.808594 C 1090.25 3578.128906 1796.628906 3790.058594 1964.058594 3840.308594 C 1987.5 3847.308594 2012.5 3847.308594 2035.941406 3840.308594 C 2203.378906 3790.058594 2909.75 3578.128906 3160.941406 3502.808594 C 3213.808594 3486.941406 3250 3438.25 3250 3383.058594 C 3250 3093.308594 3250 2226.058594 3250 2226.058594 "/>
</clipPath>
<linearGradient id="linear-pattern-0" gradientUnits="userSpaceOnUse" x1="0" y1="0" x2="1" y2="0" gradientTransform="matrix(2500, 0, 0, -1619.49, 750, 3035.81)">
<stop offset="0" stop-color="rgb(79.214478%, 86.273193%, 94.116211%)" stop-opacity="1"/>
<stop offset="0.015625" stop-color="rgb(79.098511%, 86.172485%, 94.052124%)" stop-opacity="1"/>
<stop offset="0.03125" stop-color="rgb(78.865051%, 85.969543%, 93.92395%)" stop-opacity="1"/>
<stop offset="0.046875" stop-color="rgb(78.633118%, 85.768127%, 93.79425%)" stop-opacity="1"/>
<stop offset="0.0625" stop-color="rgb(78.399658%, 85.565186%, 93.666077%)" stop-opacity="1"/>
<stop offset="0.078125" stop-color="rgb(78.166199%, 85.36377%, 93.537903%)" stop-opacity="1"/>
<stop offset="0.09375" stop-color="rgb(77.934265%, 85.160828%, 93.408203%)" stop-opacity="1"/>
<stop offset="0.109375" stop-color="rgb(77.700806%, 84.959412%, 93.280029%)" stop-opacity="1"/>
<stop offset="0.125" stop-color="rgb(77.468872%, 84.75647%, 93.151855%)" stop-opacity="1"/>
<stop offset="0.140625" stop-color="rgb(77.235413%, 84.555054%, 93.022156%)" stop-opacity="1"/>
<stop offset="0.15625" stop-color="rgb(77.001953%, 84.352112%, 92.893982%)" stop-opacity="1"/>
<stop offset="0.171875" stop-color="rgb(76.77002%, 84.150696%, 92.765808%)" stop-opacity="1"/>
<stop offset="0.1875" stop-color="rgb(76.53656%, 83.947754%, 92.636108%)" stop-opacity="1"/>
<stop offset="0.203125" stop-color="rgb(76.304626%, 83.746338%, 92.507935%)" stop-opacity="1"/>
<stop offset="0.21875" stop-color="rgb(76.071167%, 83.543396%, 92.379761%)" stop-opacity="1"/>
<stop offset="0.234375" stop-color="rgb(75.837708%, 83.34198%, 92.250061%)" stop-opacity="1"/>
<stop offset="0.25" stop-color="rgb(75.605774%, 83.139038%, 92.121887%)" stop-opacity="1"/>
<stop offset="0.265625" stop-color="rgb(75.372314%, 82.937622%, 91.993713%)" stop-opacity="1"/>
<stop offset="0.28125" stop-color="rgb(75.140381%, 82.73468%, 91.864014%)" stop-opacity="1"/>
<stop offset="0.296875" stop-color="rgb(74.906921%, 82.533264%, 91.73584%)" stop-opacity="1"/>
<stop offset="0.3125" stop-color="rgb(74.673462%, 82.330322%, 91.607666%)" stop-opacity="1"/>
<stop offset="0.328125" stop-color="rgb(74.441528%, 82.12738%, 91.479492%)" stop-opacity="1"/>
<stop offset="0.34375" stop-color="rgb(74.208069%, 81.925964%, 91.349792%)" stop-opacity="1"/>
<stop offset="0.359375" stop-color="rgb(73.976135%, 81.723022%, 91.221619%)" stop-opacity="1"/>
<stop offset="0.375" stop-color="rgb(73.742676%, 81.521606%, 91.093445%)" stop-opacity="1"/>
<stop offset="0.390625" stop-color="rgb(73.509216%, 81.318665%, 90.963745%)" stop-opacity="1"/>
<stop offset="0.40625" stop-color="rgb(73.277283%, 81.117249%, 90.835571%)" stop-opacity="1"/>
<stop offset="0.421875" stop-color="rgb(73.043823%, 80.914307%, 90.707397%)" stop-opacity="1"/>
<stop offset="0.4375" stop-color="rgb(72.81189%, 80.712891%, 90.577698%)" stop-opacity="1"/>
<stop offset="0.453125" stop-color="rgb(72.57843%, 80.509949%, 90.449524%)" stop-opacity="1"/>
<stop offset="0.46875" stop-color="rgb(72.344971%, 80.308533%, 90.32135%)" stop-opacity="1"/>
<stop offset="0.484375" stop-color="rgb(72.113037%, 80.105591%, 90.19165%)" stop-opacity="1"/>
<stop offset="0.5" stop-color="rgb(71.879578%, 79.904175%, 90.063477%)" stop-opacity="1"/>
<stop offset="0.515625" stop-color="rgb(71.647644%, 79.701233%, 89.935303%)" stop-opacity="1"/>
<stop offset="0.53125" stop-color="rgb(71.414185%, 79.499817%, 89.805603%)" stop-opacity="1"/>
<stop offset="0.546875" stop-color="rgb(71.180725%, 79.296875%, 89.677429%)" stop-opacity="1"/>
<stop offset="0.5625" stop-color="rgb(70.948792%, 79.095459%, 89.549255%)" stop-opacity="1"/>
<stop offset="0.578125" stop-color="rgb(70.715332%, 78.892517%, 89.419556%)" stop-opacity="1"/>
<stop offset="0.59375" stop-color="rgb(70.483398%, 78.691101%, 89.291382%)" stop-opacity="1"/>
<stop offset="0.609375" stop-color="rgb(70.249939%, 78.488159%, 89.163208%)" stop-opacity="1"/>
<stop offset="0.625" stop-color="rgb(70.016479%, 78.286743%, 89.033508%)" stop-opacity="1"/>
<stop offset="0.640625" stop-color="rgb(69.784546%, 78.083801%, 88.905334%)" stop-opacity="1"/>
<stop offset="0.65625" stop-color="rgb(69.551086%, 77.882385%, 88.777161%)" stop-opacity="1"/>
<stop offset="0.671875" stop-color="rgb(69.319153%, 77.679443%, 88.647461%)" stop-opacity="1"/>
<stop offset="0.6875" stop-color="rgb(69.085693%, 77.478027%, 88.519287%)" stop-opacity="1"/>
<stop offset="0.703125" stop-color="rgb(68.852234%, 77.275085%, 88.391113%)" stop-opacity="1"/>
<stop offset="0.71875" stop-color="rgb(68.6203%, 77.073669%, 88.261414%)" stop-opacity="1"/>
<stop offset="0.734375" stop-color="rgb(68.386841%, 76.870728%, 88.13324%)" stop-opacity="1"/>
<stop offset="0.75" stop-color="rgb(68.154907%, 76.667786%, 88.005066%)" stop-opacity="1"/>
<stop offset="0.765625" stop-color="rgb(67.921448%, 76.46637%, 87.875366%)" stop-opacity="1"/>
<stop offset="0.78125" stop-color="rgb(67.687988%, 76.263428%, 87.747192%)" stop-opacity="1"/>
<stop offset="0.796875" stop-color="rgb(67.456055%, 76.062012%, 87.619019%)" stop-opacity="1"/>
<stop offset="0.8125" stop-color="rgb(67.222595%, 75.85907%, 87.489319%)" stop-opacity="1"/>
<stop offset="0.828125" stop-color="rgb(66.990662%, 75.657654%, 87.361145%)" stop-opacity="1"/>
<stop offset="0.84375" stop-color="rgb(66.757202%, 75.454712%, 87.232971%)" stop-opacity="1"/>
<stop offset="0.859375" stop-color="rgb(66.523743%, 75.253296%, 87.103271%)" stop-opacity="1"/>
<stop offset="0.875" stop-color="rgb(66.291809%, 75.050354%, 86.975098%)" stop-opacity="1"/>
<stop offset="0.890625" stop-color="rgb(66.05835%, 74.848938%, 86.846924%)" stop-opacity="1"/>
<stop offset="0.90625" stop-color="rgb(65.826416%, 74.645996%, 86.717224%)" stop-opacity="1"/>
<stop offset="0.921875" stop-color="rgb(65.592957%, 74.44458%, 86.58905%)" stop-opacity="1"/>
<stop offset="0.9375" stop-color="rgb(65.361023%, 74.241638%, 86.460876%)" stop-opacity="1"/>
<stop offset="0.953125" stop-color="rgb(65.127563%, 74.040222%, 86.331177%)" stop-opacity="1"/>
<stop offset="0.96875" stop-color="rgb(64.894104%, 73.83728%, 86.203003%)" stop-opacity="1"/>
<stop offset="0.984375" stop-color="rgb(64.66217%, 73.635864%, 86.074829%)" stop-opacity="1"/>
<stop offset="1" stop-color="rgb(64.428711%, 73.432922%, 85.945129%)" stop-opacity="1"/>
</linearGradient>
<clipPath id="clip-2">
<path clip-rule="nonzero" d="M 1994 2226 L 3250 2226 L 3250 3846 L 1994 3846 Z M 1994 2226 "/>
</clipPath>
<clipPath id="clip-3">
<path clip-rule="evenodd" d="M 3250 2226.058594 L 2000 2226.058594 C 2000 2226.058594 1987.878906 3845.558594 2000 3845.558594 C 2012.128906 3845.558594 2024.191406 3843.808594 2035.941406 3840.308594 C 2203.378906 3790.058594 2909.75 3578.128906 3160.941406 3502.808594 C 3213.808594 3486.941406 3250 3438.25 3250 3383.058594 C 3250 3093.308594 3250 2226.058594 3250 2226.058594 "/>
</clipPath>
<linearGradient id="linear-pattern-1" gradientUnits="userSpaceOnUse" x1="2000" y1="0" x2="3250" y2="0">
<stop offset="0%" stop-color="#1a2a35" stop-opacity="1"/> <!-- darker color -->
<stop offset="100%" stop-color="#22303b" stop-opacity="1"/> <!-- darker color -->
</linearGradient>
<clipPath id="clip-4">
<path clip-rule="nonzero" d="M 422 2226 L 2000 2226 L 2000 3160 L 422 3160 Z M 422 2226 "/>
</clipPath>
<clipPath id="clip-5">
<path clip-rule="evenodd" d="M 2000 2631.628906 L 750 2226.058594 C 750 2226.058594 530.8125 2551.058594 432.8125 2696.308594 C 421.8125 2712.628906 419.125 2733.058594 425.5 2751.628906 C 431.9375 2770.191406 446.625 2784.628906 465.3125 2790.75 C 702.75 2867.878906 1405.628906 3096.25 1590 3156.128906 C 1616.441406 3164.75 1645.441406 3154.808594 1661.058594 3131.75 C 1744.871094 3008.058594 2000 2631.628906 2000 2631.628906 "/>
</clipPath>
<linearGradient id="linear-pattern-2" gradientUnits="userSpaceOnUse" x1="0" y1="0" x2="2000" y2="1000">
  <stop offset="0%" stop-color="#314753" stop-opacity="1"/> <!-- darker color -->
  <stop offset="100%" stop-color="#2a3d47" stop-opacity="1"/> <!-- darker color -->
</linearGradient>
<clipPath id="clip-6">
<path clip-rule="nonzero" d="M 2000 2226 L 3578 2226 L 3578 3160 L 2000 3160 Z M 2000 2226 "/>
</clipPath>
<clipPath id="clip-7">
<path clip-rule="evenodd" d="M 3250 2226.058594 L 2000 2631.628906 C 2000 2631.628906 2255.128906 3008.058594 2338.941406 3131.75 C 2354.558594 3154.808594 2383.558594 3164.75 2410 3156.128906 C 2594.371094 3096.25 3297.25 2867.878906 3534.691406 2790.75 C 3553.378906 2784.628906 3568.058594 2770.191406 3574.5 2751.628906 C 3580.878906 2733.058594 3578.191406 2712.628906 3567.191406 2696.308594 C 3469.191406 2551.058594 3250 2226.058594 3250 2226.058594 "/>
</clipPath>
<linearGradient id="linear-pattern-3" gradientUnits="userSpaceOnUse" x1="-0.134634" y1="0" x2="1.074848" y2="0" gradientTransform="matrix(1554.36, 346.688, 605.768, -1051.93, 2064.15, 2524.74)">
  <stop offset="0%" stop-color="#314753" stop-opacity="1"/> <!-- darker color -->
  <stop offset="100%" stop-color="#2a3d47" stop-opacity="1"/> <!-- darker color -->
</linearGradient>
<clipPath id="clip-8">
<path clip-rule="nonzero" d="M 458 1346 L 2000 1346 L 2000 2227 L 458 2227 Z M 458 1346 "/>
</clipPath>
<clipPath id="clip-9">
<path clip-rule="evenodd" d="M 1697.441406 1374.128906 C 1681.808594 1351.191406 1652.871094 1341.25 1626.441406 1349.878906 C 1442.191406 1409.691406 739.125 1638.128906 501.6875 1715.308594 C 483 1721.378906 468.25 1735.808594 461.875 1754.378906 C 455.5 1772.941406 458.1875 1793.441406 469.1875 1809.691406 C 559.4375 1943.558594 750 2226.058594 750 2226.058594 L 2000 1819.128906 C 2000 1819.128906 1775.5 1488.941406 1697.441406 1374.128906 "/>
</clipPath>
<linearGradient id="linear-pattern-4" gradientUnits="userSpaceOnUse" x1="-0.291014" y1="0" x2="1.014067" y2="0" gradientTransform="matrix(1047.78, -706.731, -1101.62, -233.508, 846.323, 2038.6)">
  <stop offset="0%" stop-color="#314753" stop-opacity="1"/> <!-- darker color -->
  <stop offset="100%" stop-color="#2a3d47" stop-opacity="1"/> <!-- darker color -->
</linearGradient>
<clipPath id="clip-10">
<path clip-rule="nonzero" d="M 2000 1346 L 3542 1346 L 3542 2227 L 2000 2227 Z M 2000 1346 "/>
</clipPath>
<clipPath id="clip-11">
<path clip-rule="evenodd" d="M 3530.808594 1809.691406 C 3541.808594 1793.441406 3544.5 1772.941406 3538.128906 1754.378906 C 3531.75 1735.808594 3517 1721.378906 3498.308594 1715.308594 C 3260.878906 1638.128906 2557.808594 1409.691406 2373.558594 1349.878906 C 2347.128906 1341.25 2318.191406 1351.191406 2302.558594 1374.128906 C 2224.5 1488.941406 2000 1819.128906 2000 1819.128906 L 3250 2226.058594 C 3250 2226.058594 3440.558594 1943.558594 3530.808594 1809.691406 "/>
</clipPath>
<linearGradient id="linear-pattern-5" gradientUnits="userSpaceOnUse" x1="-0.0127529" y1="0" x2="0.876395" y2="0" gradientTransform="matrix(399.808, 1076.96, 1697.43, -103.882, 2595.37, 1318.86)">
  <stop offset="0%" stop-color="#314753" stop-opacity="1"/> <!-- darker color -->
  <stop offset="100%" stop-color="#2a3d47" stop-opacity="1"/> <!-- darker color -->
</linearGradient>
<clipPath id="clip-12">
<path clip-rule="nonzero" d="M 750 1819 L 3250 1819 L 3250 2632 L 750 2632 Z M 750 1819 "/>
</clipPath>
<clipPath id="clip-13">
<path clip-rule="evenodd" d="M 3250 2226.058594 L 2000 1819.128906 L 750 2226.058594 L 2000 2631.628906 L 3250 2226.058594 "/>
</clipPath>
<linearGradient id="linear-pattern-6" gradientUnits="userSpaceOnUse" x1="0" y1="0" x2="1" y2="0" gradientTransform="matrix(2500, 0, 0, -812.5, 750, 2225.38)">
<stop offset="0%" stop-color="#233041" stop-opacity="1"/> <!-- slightly lighter dark -->
<stop offset="100%" stop-color="#2b3a46" stop-opacity="1"/> <!-- slightly lighter dark -->
</linearGradient>
<clipPath id="clip-14">
<path clip-rule="nonzero" d="M 750 1819 L 2000 1819 L 2000 2632 L 750 2632 Z M 750 1819 "/>
</clipPath>
<clipPath id="clip-15">
<path clip-rule="evenodd" d="M 2000 2631.628906 L 2000 1819.128906 L 750 2226.058594 Z M 2000 2631.628906 "/>
</clipPath>
<linearGradient id="linear-pattern-7" gradientUnits="userSpaceOnUse" x1="-0.0183735" y1="0" x2="0.818869" y2="0" gradientTransform="matrix(26.9187, 1009.54, 1009.54, -26.9187, 1369.63, 1821.17)">
<stop offset="0%" stop-color="#1a2a35" stop-opacity="1"/> <!-- darker color -->
<stop offset="100%" stop-color="#22303b" stop-opacity="1"/> <!-- darker color -->
</linearGradient>
<clipPath id="clip-16">
<path clip-rule="nonzero" d="M 1573 1927 L 1778 1927 L 1778 2114 L 1573 2114 Z M 1573 1927 "/>
</clipPath>
<clipPath id="clip-17">
<path clip-rule="evenodd" d="M 1748.878906 1998.628906 C 1722.878906 1981.621094 1699.441406 1963.441406 1678.628906 1944.378906 C 1653.25 1921.058594 1613.691406 1922.75 1590.308594 1948.191406 C 1567 1973.558594 1568.691406 2013.121094 1594.128906 2036.441406 C 1619.691406 2059.941406 1648.5 2082.308594 1680.5 2103.25 C 1709.378906 2122.128906 1748.121094 2114 1767 2085.128906 C 1785.871094 2056.25 1777.75 2017.5 1748.878906 1998.628906 "/>
</clipPath>
<linearGradient id="linear-pattern-8" gradientUnits="userSpaceOnUse" x1="0.68432" y1="0" x2="0.83899" y2="0" gradientTransform="matrix(1232.73, 1454.53, 1454.53, -1232.73, 737.456, 913.8)">
  <stop offset="0" stop-color="#00aa72" stop-opacity="1"/>
  <stop offset="0.5" stop-color="#009966" stop-opacity="1"/>
  <stop offset="1" stop-color="#00885b" stop-opacity="1"/>
</linearGradient>
<clipPath id="clip-18">
<path clip-rule="nonzero" d="M 1388 1696 L 1567 1696 L 1567 1907 L 1388 1907 Z M 1388 1696 "/>
</clipPath>
<clipPath id="clip-19">
<path clip-rule="evenodd" d="M 1554.121094 1806.628906 C 1535.558594 1781.441406 1519.878906 1756.128906 1507 1730.808594 C 1491.378906 1700.058594 1453.691406 1687.808594 1422.941406 1703.441406 C 1392.191406 1719.058594 1379.941406 1756.75 1395.558594 1787.5 C 1411.441406 1818.628906 1430.691406 1849.808594 1453.5 1880.75 C 1473.941406 1908.5 1513.058594 1914.441406 1540.871094 1894 C 1568.628906 1873.5 1574.558594 1834.378906 1554.121094 1806.628906 "/>
</clipPath>
<linearGradient id="linear-pattern-9" gradientUnits="userSpaceOnUse" x1="0.527558" y1="0" x2="0.684232" y2="0" gradientTransform="matrix(1232.73, 1454.53, 1454.53, -1232.73, 730.383, 919.8)">
  <stop offset="0" stop-color="#00aa72" stop-opacity="1"/>
  <stop offset="0.5" stop-color="#009966" stop-opacity="1"/>
  <stop offset="1" stop-color="#00885b" stop-opacity="1"/>
</linearGradient>
<clipPath id="clip-20">
<path clip-rule="nonzero" d="M 1337 1398 L 1477 1398 L 1477 1613 L 1337 1613 Z M 1337 1398 "/>
</clipPath>
<clipPath id="clip-21">
<path clip-rule="evenodd" d="M 1462.75 1551.558594 C 1463.378906 1526.378906 1467.058594 1501.941406 1473.808594 1478.5 C 1483.308594 1445.378906 1464.128906 1410.691406 1430.941406 1401.191406 C 1397.808594 1391.691406 1363.128906 1410.878906 1353.628906 1444.058594 C 1344.058594 1477.558594 1338.691406 1512.5 1337.75 1548.441406 C 1336.941406 1582.941406 1364.191406 1611.628906 1398.691406 1612.441406 C 1433.191406 1613.308594 1461.871094 1586.058594 1462.75 1551.558594 "/>
</clipPath>
<linearGradient id="linear-pattern-10" gradientUnits="userSpaceOnUse" x1="0.394494" y1="0" x2="0.532801" y2="0" gradientTransform="matrix(1232.74, 1454.54, 1454.54, -1232.74, 835.201, 830.96)">
  <stop offset="0" stop-color="#00aa72" stop-opacity="1"/>
  <stop offset="0.5" stop-color="#009966" stop-opacity="1"/>
  <stop offset="1" stop-color="#00885b" stop-opacity="1"/>
</linearGradient>
<clipPath id="clip-22">
<path clip-rule="nonzero" d="M 1453 1186 L 1642 1186 L 1642 1360 L 1453 1360 Z M 1453 1186 "/>
</clipPath>
<clipPath id="clip-23">
<path clip-rule="evenodd" d="M 1558.871094 1342.808594 C 1574.941406 1327.941406 1592.941406 1314.191406 1612.628906 1301.75 C 1641.808594 1283.308594 1650.558594 1244.691406 1632.191406 1215.558594 C 1613.75 1186.378906 1575.128906 1177.621094 1545.941406 1196 C 1519.5 1212.691406 1495.5 1231.128906 1473.941406 1251.128906 C 1448.628906 1274.558594 1447.121094 1314.121094 1470.558594 1339.441406 C 1494 1364.75 1533.558594 1366.25 1558.871094 1342.808594 "/>
</clipPath>
<linearGradient id="linear-pattern-11" gradientUnits="userSpaceOnUse" x1="0.346204" y1="0" x2="0.490665" y2="0" gradientTransform="matrix(1232.73, 1454.53, 1454.53, -1232.73, 1031.96, 664.21)">
  <stop offset="0" stop-color="#00aa72" stop-opacity="1"/>
  <stop offset="0.5" stop-color="#009966" stop-opacity="1"/>
  <stop offset="1" stop-color="#00885b" stop-opacity="1"/>
</linearGradient>
<clipPath id="clip-24">
<path clip-rule="nonzero" d="M 1717 1099 L 1952 1099 L 1952 1237 L 1717 1237 Z M 1717 1099 "/>
</clipPath>
<clipPath id="clip-25">
<path clip-rule="evenodd" d="M 1791.308594 1235 C 1822.75 1229.191406 1856.058594 1225.441406 1891.191406 1224 C 1925.691406 1222.5 1952.441406 1193.308594 1951 1158.878906 C 1949.558594 1124.441406 1920.378906 1097.628906 1885.878906 1099.058594 C 1844.628906 1100.808594 1805.5 1105.25 1768.558594 1112.058594 C 1734.691406 1118.371094 1712.191406 1151 1718.5 1184.878906 C 1724.75 1218.808594 1757.378906 1241.25 1791.308594 1235 "/>
</clipPath>
<linearGradient id="linear-pattern-12" gradientUnits="userSpaceOnUse" x1="0.404086" y1="0" x2="0.54302" y2="0" gradientTransform="matrix(1232.73, 1454.53, 1454.53, -1232.73, 1250.62, 478.89)">
  <stop offset="0" stop-color="#00aa72" stop-opacity="1"/>
  <stop offset="0.5" stop-color="#009966" stop-opacity="1"/>
  <stop offset="1" stop-color="#00885b" stop-opacity="1"/>
</linearGradient>
<clipPath id="clip-26">
<path clip-rule="nonzero" d="M 2055 1101 L 2324 1101 L 2324 1232 L 2055 1232 Z M 2055 1101 "/>
</clipPath>
<clipPath id="clip-27">
<path clip-rule="evenodd" d="M 2117.058594 1231.308594 C 2170.378906 1231.941406 2220 1230.058594 2266.058594 1226 C 2300.441406 1222.941406 2325.878906 1192.558594 2322.808594 1158.191406 C 2319.75 1123.878906 2289.378906 1098.441406 2255 1101.5 C 2212.808594 1105.191406 2167.378906 1106.941406 2118.5 1106.308594 C 2084 1105.941406 2055.691406 1133.628906 2055.308594 1168.058594 C 2054.878906 1202.558594 2082.558594 1230.941406 2117.058594 1231.308594 "/>
</clipPath>
<linearGradient id="linear-pattern-13" gradientUnits="userSpaceOnUse" x1="0.520618" y1="0" x2="0.66593" y2="0" gradientTransform="matrix(1232.73, 1454.53, 1454.53, -1232.73, 1457.79, 303.31)">
  <stop offset="0" stop-color="#00aa72" stop-opacity="1"/>
  <stop offset="0.5" stop-color="#009966" stop-opacity="1"/>
  <stop offset="1" stop-color="#00885b" stop-opacity="1"/>
</linearGradient>
<clipPath id="clip-28">
<path clip-rule="nonzero" d="M 2390 1001 L 2659 1001 L 2659 1191 L 2390 1191 Z M 2390 1001 "/>
</clipPath>
<clipPath id="clip-29">
<path clip-rule="evenodd" d="M 2471.5 1187.691406 C 2533.378906 1168.75 2585.628906 1144.5 2629.378906 1116.691406 C 2658.441406 1098.128906 2667.058594 1059.5 2648.5 1030.378906 C 2630 1001.308594 2591.308594 992.691406 2562.191406 1011.25 C 2527 1033.628906 2484.808594 1052.878906 2434.941406 1068.128906 C 2402 1078.25 2383.378906 1113.191406 2393.5 1146.191406 C 2403.558594 1179.191406 2438.558594 1197.75 2471.5 1187.691406 "/>
</clipPath>
<linearGradient id="linear-pattern-14" gradientUnits="userSpaceOnUse" x1="0.589697" y1="0" x2="0.767941" y2="0" gradientTransform="matrix(1232.73, 1454.53, 1454.53, -1232.73, 1687.66, 108.5)">
  <stop offset="0" stop-color="#00aa72" stop-opacity="1"/>
  <stop offset="0.5" stop-color="#009966" stop-opacity="1"/>
  <stop offset="1" stop-color="#00885b" stop-opacity="1"/>
</linearGradient>
<clipPath id="clip-30">
<path clip-rule="nonzero" d="M 2670 694 L 2828 694 L 2828 978 L 2670 978 Z M 2670 694 "/>
</clipPath>
<clipPath id="clip-31">
<path clip-rule="evenodd" d="M 2789.628906 941.75 C 2819.128906 880.75 2830.441406 816.25 2827.558594 754.058594 C 2825.941406 719.558594 2796.628906 692.941406 2762.191406 694.558594 C 2727.75 696.191406 2701.058594 725.441406 2702.691406 759.871094 C 2704.691406 802.121094 2697.058594 845.941406 2677.058594 887.371094 C 2662.058594 918.441406 2675.058594 955.871094 2706.128906 970.871094 C 2737.191406 985.871094 2774.628906 972.808594 2789.628906 941.75 "/>
</clipPath>
<linearGradient id="linear-pattern-15" gradientUnits="userSpaceOnUse" x1="0.564266" y1="0" x2="0.73857" y2="0" gradientTransform="matrix(1232.73, 1454.53, 1454.53, -1232.73, 1946.73, -111.07)">
  <stop offset="0" stop-color="#00aa72" stop-opacity="1"/>
  <stop offset="0.5" stop-color="#009966" stop-opacity="1"/>
  <stop offset="1" stop-color="#00885b" stop-opacity="1"/>
</linearGradient>
<clipPath id="clip-32">
<path clip-rule="nonzero" d="M 2499 413 L 2763 413 L 2763 633 L 2499 633 Z M 2499 413 "/>
</clipPath>
<clipPath id="clip-33">
<path clip-rule="evenodd" d="M 2749.808594 533.058594 C 2704.25 471.5 2642.441406 428.621094 2575.058594 414.808594 C 2541.25 407.941406 2508.191406 429.691406 2501.25 463.5 C 2494.378906 497.308594 2516.191406 530.371094 2549.941406 537.308594 C 2588.808594 545.25 2623.058594 571.941406 2649.378906 607.5 C 2669.941406 635.191406 2709.128906 641 2736.808594 620.5 C 2764.558594 599.941406 2770.378906 560.75 2749.808594 533.058594 "/>
</clipPath>
<linearGradient id="linear-pattern-16" gradientUnits="userSpaceOnUse" x1="0.393375" y1="0" x2="0.580218" y2="0" gradientTransform="matrix(1232.73, 1454.53, 1454.53, -1232.73, 2032.41, -183.69)">
  <stop offset="0" stop-color="#00aa72" stop-opacity="1"/>
  <stop offset="0.5" stop-color="#009966" stop-opacity="1"/>
  <stop offset="1" stop-color="#00885b" stop-opacity="1"/>
</linearGradient>
<clipPath id="clip-34">
<path clip-rule="nonzero" d="M 1933 148 L 2352 148 L 2352 427 L 1933 427 Z M 1933 148 "/>
</clipPath>
<clipPath id="clip-35">
<path clip-rule="evenodd" d="M 1933.308594 426.941406 C 2000.941406 44 2587 68.75 2245.808594 426.941406 L 1933.308594 426.941406 "/>
</clipPath>
<linearGradient id="linear-pattern-17" gradientUnits="userSpaceOnUse" x1="0" y1="0" x2="1.562159" y2="0" gradientTransform="matrix(418.453, 0, 0, -277.983, 1933.31, 287.94)">
<stop offset="0%" stop-color="#233041" stop-opacity="1"/> <!-- slightly lighter dark -->
<stop offset="100%" stop-color="#2b3a46" stop-opacity="1"/> <!-- slightly lighter dark -->
</linearGradient>
<clipPath id="clip-36">
<path clip-rule="nonzero" d="M 1933 523 L 2352 523 L 2352 802 L 1933 802 Z M 1933 523 "/>
</clipPath>
<clipPath id="clip-37">
<path clip-rule="evenodd" d="M 1933.308594 523.941406 C 2000.941406 906.808594 2587 882.121094 2245.808594 523.941406 L 1933.308594 523.941406 "/>
</clipPath>
<linearGradient id="linear-pattern-18" gradientUnits="userSpaceOnUse" x1="0" y1="0" x2="1.562159" y2="0" gradientTransform="matrix(418.453, 0, 0, 277.983, 1933.31, 662.93)">
<stop offset="0%" stop-color="#233041" stop-opacity="1"/> <!-- slightly lighter dark -->
<stop offset="100%" stop-color="#2b3a46" stop-opacity="1"/> <!-- slightly lighter dark -->
</linearGradient>
<clipPath id="clip-38">
<path clip-rule="nonzero" d="M 1865 413 L 2409 413 L 2409 539 L 1865 539 Z M 1865 413 "/>
</clipPath>
<clipPath id="clip-39">
<path clip-rule="evenodd" d="M 1927.691406 538.558594 L 2346.191406 538.558594 C 2380.691406 538.558594 2408.691406 510.558594 2408.691406 476.058594 C 2408.691406 441.558594 2380.691406 413.558594 2346.191406 413.558594 L 1927.691406 413.558594 C 1893.25 413.558594 1865.191406 441.558594 1865.191406 476.058594 C 1865.191406 510.558594 1893.25 538.558594 1927.691406 538.558594 "/>
</clipPath>
<linearGradient id="linear-pattern-19" gradientUnits="userSpaceOnUse" x1="0.182262" y1="0" x2="0.416579" y2="0" gradientTransform="matrix(1232.73, 1454.53, 1454.53, -1232.73, 1767.84, 40.54)">
  <stop offset="0" stop-color="#00aa72" stop-opacity="1"/>
  <stop offset="0.5" stop-color="#009966" stop-opacity="1"/>
  <stop offset="1" stop-color="#00885b" stop-opacity="1"/>
</linearGradient>
</defs>

<g clip-path="url(#clip-0)">
<g clip-path="url(#clip-1)">
<path fill-rule="nonzero" fill="url(#linear-pattern-0)" d="M 750 3847.308594 L 750 2226.058594 L 3250 2226.058594 L 3250 3847.308594 Z M 750 3847.308594 "/>
</g>
</g>
<g clip-path="url(#clip-2)">
<g clip-path="url(#clip-3)">
  <path fill-rule="nonzero" fill="url(#linear-pattern-1)" d="M 1987.878906 3845.558594 L 1987.878906 2226.058594 L 3250 2226.058594 L 3250 3845.558594 Z"/>
</g>
</g>
<g clip-path="url(#clip-4)">
<g clip-path="url(#clip-5)">
<path fill-rule="nonzero" fill="url(#linear-pattern-2)" d="M 50.46875 2281.695312 L 1906.304688 2001.625 L 2368.65625 3109.113281 L 512.820312 3389.183594 Z M 50.46875 2281.695312 "/>
</g>
</g>
<g clip-path="url(#clip-6)">
<g clip-path="url(#clip-7)">
<path fill-rule="nonzero" fill="url(#linear-pattern-3)" d="M 1520.96875 3057.90625 L 2179.9375 1913.589844 L 4059.910156 2332.902344 L 3400.941406 3477.21875 Z M 1520.96875 3057.90625 "/>
</g>
</g>
<g clip-path="url(#clip-8)">
<g clip-path="url(#clip-9)">
<path fill-rule="nonzero" fill="url(#linear-pattern-4)" d="M 1630.6875 2475.160156 L -542.625 2014.488281 L 824.8125 1092.148438 L 2998.125 1552.820312 Z M 1630.6875 2475.160156 "/>
</g>
</g>
<g clip-path="url(#clip-10)">
<g clip-path="url(#clip-11)">
<path fill-rule="nonzero" fill="url(#linear-pattern-5)" d="M 1678.824219 1360.90625 L 3510.1875 1248.828125 L 3865.675781 2206.402344 L 2034.3125 2318.484375 Z M 1678.824219 1360.90625 "/>
</g>
</g>
<g clip-path="url(#clip-12)">
<g clip-path="url(#clip-13)">
<path fill-rule="nonzero" fill="url(#linear-pattern-6)" d="M 750 2631.628906 L 750 1819.128906 L 3250 1819.128906 L 3250 2631.628906 Z M 750 2631.628906 "/>
</g>
</g>
<g clip-path="url(#clip-14)">
<g clip-path="url(#clip-15)">
<path fill-rule="nonzero" fill="url(#linear-pattern-7)" d="M 728.351562 1819.707031 L 1999.113281 1785.824219 L 2021.648438 2631.050781 L 750.886719 2664.9375 Z M 728.351562 1819.707031 "/>
</g>
</g>
<g clip-path="url(#clip-16)">
<g clip-path="url(#clip-17)">
<path fill-rule="nonzero" fill="url(#linear-pattern-8)" d="M 1467.824219 2005.113281 L 1694.378906 1813.105469 L 1885.042969 2038.078125 L 1658.492188 2230.085938 Z M 1467.824219 2005.113281 "/>
</g>
</g>
<g clip-path="url(#clip-18)">
<g clip-path="url(#clip-19)">
<path fill-rule="nonzero" fill="url(#linear-pattern-9)" d="M 1268.160156 1782.546875 L 1493.203125 1591.816406 L 1686.339844 1819.703125 L 1461.296875 2010.433594 Z M 1268.160156 1782.546875 "/>
</g>
</g>
<g clip-path="url(#clip-20)">
<g clip-path="url(#clip-21)">
<path fill-rule="nonzero" fill="url(#linear-pattern-10)" d="M 1227.628906 1484.332031 L 1422.125 1319.496094 L 1592.621094 1520.667969 L 1398.125 1685.503906 Z M 1227.628906 1484.332031 "/>
</g>
</g>
<g clip-path="url(#clip-22)">
<g clip-path="url(#clip-23)">
<path fill-rule="nonzero" fill="url(#linear-pattern-11)" d="M 1354.082031 1256.472656 L 1565.519531 1077.277344 L 1743.597656 1287.398438 L 1532.164062 1466.59375 Z M 1354.082031 1256.472656 "/>
</g>
</g>
<g clip-path="url(#clip-24)">
<g clip-path="url(#clip-25)">
<path fill-rule="nonzero" fill="url(#linear-pattern-12)" d="M 1641.351562 1157.667969 L 1852.011719 979.128906 L 2023.277344 1181.214844 L 1812.621094 1359.75 Z M 1641.351562 1157.667969 "/>
</g>
</g>
<g clip-path="url(#clip-26)">
<g clip-path="url(#clip-27)">
<path fill-rule="nonzero" fill="url(#linear-pattern-13)" d="M 1989.035156 1154.246094 L 2212.597656 964.773438 L 2391.726562 1176.132812 L 2168.164062 1365.605469 Z M 1989.035156 1154.246094 "/>
</g>
</g>
<g clip-path="url(#clip-28)">
<g clip-path="url(#clip-29)">
<path fill-rule="nonzero" fill="url(#linear-pattern-14)" d="M 2282.238281 1078.410156 L 2548.476562 852.769531 L 2768.203125 1112.03125 L 2501.964844 1337.671875 Z M 2282.238281 1078.410156 "/>
</g>
</g>
<g clip-path="url(#clip-30)">
<g clip-path="url(#clip-31)">
<path fill-rule="nonzero" fill="url(#linear-pattern-15)" d="M 2517.578125 815.390625 L 2760.054688 609.890625 L 2974.921875 863.417969 L 2732.445312 1068.921875 Z M 2517.578125 815.390625 "/>
</g>
</g>
<g clip-path="url(#clip-32)">
<g clip-path="url(#clip-33)">
<path fill-rule="nonzero" fill="url(#linear-pattern-16)" d="M 2379.425781 505.363281 L 2655.007812 271.808594 L 2885.332031 543.574219 L 2609.753906 777.132812 Z M 2379.425781 505.363281 "/>
</g>
</g>
<g clip-path="url(#clip-34)">
<g clip-path="url(#clip-35)">
<path fill-rule="nonzero" fill="url(#linear-pattern-17)" d="M 1933.308594 426.941406 L 1933.308594 44 L 2587 44 L 2587 426.941406 Z M 1933.308594 426.941406 "/>
</g>
</g>
<g clip-path="url(#clip-36)">
<g clip-path="url(#clip-37)">
<path fill-rule="nonzero" fill="url(#linear-pattern-18)" d="M 1933.308594 523.941406 L 1933.308594 906.808594 L 2587 906.808594 L 2587 523.941406 Z M 1933.308594 523.941406 "/>
</g>
</g>
<g clip-path="url(#clip-38)">
<g clip-path="url(#clip-39)">
<path fill-rule="nonzero" fill="url(#linear-pattern-19)" d="M 1803.535156 465.8125 L 2181.496094 145.488281 L 2470.34375 486.308594 L 2092.382812 806.632812 Z M 1803.535156 465.8125 "/>
</g>
</g>
</svg>
